<?xml version="1.0" encoding="UTF-8" standalone="no"?>
<svg width="20px" height="25px" viewBox="0 0 20 25" version="1.1" xmlns="http://www.w3.org/2000/svg" xmlns:xlink="http://www.w3.org/1999/xlink">
    <!-- Generator: Sketch 49.3 (51167) - http://www.bohemiancoding.com/sketch -->
    <title>蓝@1x</title>
    <desc>Created with Sketch.</desc>
    <defs></defs>
    <g id="蓝" stroke="none" stroke-width="1" fill="none" fill-rule="evenodd">
        <g id="Page-1" transform="translate(1.000000, 1.000000)">
            <path d="M12.1313,20.5846 C12.6453,19.9356 12.9623,19.1336 12.9623,18.2536 C12.9623,18.1466 12.9553,18.0456 12.9403,17.8586 C12.8233,16.3626 12.1213,15.4376 11.5013,14.6216 C10.9733,13.9266 10.5183,13.3266 10.5183,12.4756 C10.5183,12.3016 10.4113,12.1426 10.2433,12.0646 C10.0763,11.9876 9.8743,12.0046 9.7253,12.1096 C8.7763,12.7736 7.9853,13.8916 7.7083,14.9596 C7.5673,15.5066 7.5183,16.0986 7.5013,16.5856 C7.1583,16.2436 7.0513,15.6106 7.0503,15.6016 C7.0283,15.4546 6.9313,15.3256 6.7883,15.2576 C6.6473,15.1896 6.4773,15.1876 6.3343,15.2556 C6.2103,15.3146 5.1153,15.8966 5.0523,18.0366 C5.0473,18.1096 5.0473,18.1816 5.0473,18.2536 C5.0473,19.1336 5.3653,19.9356 5.8783,20.5846 C3.0653,19.4596 1.0893,16.8656 1.0893,13.8506 C1.0893,13.7126 1.0893,13.5756 1.0993,13.4236 C1.1843,10.6766 2.1333,9.3136 2.7523,8.7126 C3.1843,10.1446 4.3153,12.0176 6.5313,12.0176 C6.8053,12.0176 7.0263,11.8126 7.0263,11.5586 C7.0263,10.0246 7.0633,8.2526 7.5063,6.6296 C8.0083,4.7906 9.3843,2.8056 11.0463,1.4616 C11.3223,3.4246 12.4763,4.8636 13.6893,6.3766 C15.1313,8.1746 16.6223,10.0346 16.8723,13.0456 L16.8893,13.2646 C16.9043,13.4556 16.9203,13.6456 16.9203,13.8506 C16.9203,16.8656 14.9453,19.4586 12.1313,20.5846 M9.0053,21.1836 C7.3683,21.1836 6.0363,19.8696 6.0363,18.2536 C6.0363,18.1986 6.0363,18.1436 6.0403,18.0756 C6.0603,17.3946 6.2003,16.9296 6.3533,16.6196 C6.6403,17.1906 7.1533,17.7156 7.9863,17.7156 C8.2603,17.7156 8.4813,17.5106 8.4813,17.2576 C8.4813,16.6056 8.4953,15.8526 8.6713,15.1726 C8.8273,14.5696 9.2003,13.9296 9.6723,13.4156 C9.8823,14.0826 10.2923,14.6226 10.6923,15.1496 C11.2653,15.9026 11.8563,16.6826 11.9603,18.0106 C11.9673,18.0896 11.9733,18.1686 11.9733,18.2536 C11.9733,19.8696 10.6413,21.1836 9.0053,21.1836 M17.8753,13.1966 L17.8593,12.9816 C17.5873,9.7006 15.9383,7.6436 14.4833,5.8296 C13.1363,4.1496 11.9733,2.6996 11.9733,0.5596 C11.9733,0.3876 11.8693,0.2306 11.7043,0.1516 C11.5393,0.0726 11.3403,0.0856 11.1903,0.1866 C9.0053,1.6346 7.1833,4.0756 6.5463,6.4046 C6.1043,8.0266 6.0453,9.8496 6.0373,11.0536 C4.0203,10.6546 3.5633,7.8586 3.5583,7.8276 C3.5353,7.6826 3.4403,7.5566 3.3003,7.4876 C3.1603,7.4196 2.9953,7.4146 2.8523,7.4796 C2.7463,7.5276 0.2553,8.7006 0.1103,13.3826 C0.1003,13.5386 0.1003,13.6946 0.1003,13.8506 C0.1003,18.3986 4.0953,22.0996 9.0053,22.0996 C13.9143,22.0996 17.9093,18.3986 17.9093,13.8506 C17.9093,13.6226 17.8923,13.4086 17.8753,13.1966" id="Fill-1" fill="#4A90E2"></path>
            <path d="M12.1313,20.5846 C12.6453,19.9356 12.9623,19.1336 12.9623,18.2536 C12.9623,18.1466 12.9553,18.0456 12.9403,17.8586 C12.8233,16.3626 12.1213,15.4376 11.5013,14.6216 C10.9733,13.9266 10.5183,13.3266 10.5183,12.4756 C10.5183,12.3016 10.4113,12.1426 10.2433,12.0646 C10.0763,11.9876 9.8743,12.0046 9.7253,12.1096 C8.7763,12.7736 7.9853,13.8916 7.7083,14.9596 C7.5673,15.5066 7.5183,16.0986 7.5013,16.5856 C7.1583,16.2436 7.0513,15.6106 7.0503,15.6016 C7.0283,15.4546 6.9313,15.3256 6.7883,15.2576 C6.6473,15.1896 6.4773,15.1876 6.3343,15.2556 C6.2103,15.3146 5.1153,15.8966 5.0523,18.0366 C5.0473,18.1096 5.0473,18.1816 5.0473,18.2536 C5.0473,19.1336 5.3653,19.9356 5.8783,20.5846 C3.0653,19.4596 1.0893,16.8656 1.0893,13.8506 C1.0893,13.7126 1.0893,13.5756 1.0993,13.4236 C1.1843,10.6766 2.1333,9.3136 2.7523,8.7126 C3.1843,10.1446 4.3153,12.0176 6.5313,12.0176 C6.8053,12.0176 7.0263,11.8126 7.0263,11.5586 C7.0263,10.0246 7.0633,8.2526 7.5063,6.6296 C8.0083,4.7906 9.3843,2.8056 11.0463,1.4616 C11.3223,3.4246 12.4763,4.8636 13.6893,6.3766 C15.1313,8.1746 16.6223,10.0346 16.8723,13.0456 L16.8893,13.2646 C16.9043,13.4556 16.9203,13.6456 16.9203,13.8506 C16.9203,16.8656 14.9453,19.4586 12.1313,20.5846 Z M9.0053,21.1836 C7.3683,21.1836 6.0363,19.8696 6.0363,18.2536 C6.0363,18.1986 6.0363,18.1436 6.0403,18.0756 C6.0603,17.3946 6.2003,16.9296 6.3533,16.6196 C6.6403,17.1906 7.1533,17.7156 7.9863,17.7156 C8.2603,17.7156 8.4813,17.5106 8.4813,17.2576 C8.4813,16.6056 8.4953,15.8526 8.6713,15.1726 C8.8273,14.5696 9.2003,13.9296 9.6723,13.4156 C9.8823,14.0826 10.2923,14.6226 10.6923,15.1496 C11.2653,15.9026 11.8563,16.6826 11.9603,18.0106 C11.9673,18.0896 11.9733,18.1686 11.9733,18.2536 C11.9733,19.8696 10.6413,21.1836 9.0053,21.1836 Z M17.8753,13.1966 L17.8593,12.9816 C17.5873,9.7006 15.9383,7.6436 14.4833,5.8296 C13.1363,4.1496 11.9733,2.6996 11.9733,0.5596 C11.9733,0.3876 11.8693,0.2306 11.7043,0.1516 C11.5393,0.0726 11.3403,0.0856 11.1903,0.1866 C9.0053,1.6346 7.1833,4.0756 6.5463,6.4046 C6.1043,8.0266 6.0453,9.8496 6.0373,11.0536 C4.0203,10.6546 3.5633,7.8586 3.5583,7.8276 C3.5353,7.6826 3.4403,7.5566 3.3003,7.4876 C3.1603,7.4196 2.9953,7.4146 2.8523,7.4796 C2.7463,7.5276 0.2553,8.7006 0.1103,13.3826 C0.1003,13.5386 0.1003,13.6946 0.1003,13.8506 C0.1003,18.3986 4.0953,22.0996 9.0053,22.0996 C13.9143,22.0996 17.9093,18.3986 17.9093,13.8506 C17.9093,13.6226 17.8923,13.4086 17.8753,13.1966 Z" id="Stroke-3" stroke="#4A90E2" stroke-width="0.2"></path>
        </g>
    </g>
</svg>